<svg xmlns="http://www.w3.org/2000/svg" style="display: none;">
  
  <!-- HTML5 Icon -->
  <symbol id="html5" viewBox="0 0 32 32">
    <path fill="#E44D26" d="M5.902 27.201L3.655 2h24.69l-2.25 25.197L15.985 30 5.902 27.201z"/>
    <path fill="#F16529" d="M16 27.858l8.17-2.265 1.922-21.532H16v23.797z"/>
    <path fill="#EBEBEB" d="M16 13.407h-4.09l-.282-3.165H16V7.151H8.25l.074.83.759 8.517H16v-3.091zM16 21.434l-.014.004-3.442-.929-.22-2.465H9.221l.433 4.852 6.332 1.758.014-.004v-3.216z"/>
    <path fill="#FFF" d="M15.989 13.407v3.091h3.806l-.358 4.009-3.448.93v3.216l6.337-1.757.046-.522.726-8.137.076-.83h-.833l-6.352.001zM15.989 7.151v3.091h7.466l.062-.694.141-1.567.074-.83h-7.743z"/>
  </symbol>

  <!-- CSS3 Icon -->
  <symbol id="css" viewBox="0 0 32 32">
    <path fill="#1572B6" d="M5.902 27.201L3.656 2h24.688l-2.249 25.197L15.985 30 5.902 27.201z"/>
    <path fill="#33A9DC" d="M16 27.858l8.17-2.265 1.922-21.532H16v23.797z"/>
    <path fill="#EBEBEB" d="M16 13.191h-4.09l-.282-3.165H16V6.935H8.25l.074.829.759 8.518H16v-3.091zM16 21.434l-.014.004-3.442-.93-.22-2.465H9.221l.433 4.853 6.331 1.758.015-.004v-3.216z"/>
    <path fill="#FFF" d="M15.989 13.191v3.091h3.806l-.358 4.009-3.448.93v3.216l6.337-1.758.046-.522.726-8.137.076-.829h-.833l-6.352-.001zM15.989 6.935v3.091h7.466l.062-.695.141-1.567.074-.829h-7.743z"/>
  </symbol>

  <!-- JavaScript Icon -->
  <symbol id="js" viewBox="0 0 32 32">
    <rect width="32" height="32" fill="#F7DF1E"/>
    <path d="M18.774 19.7a3.727 3.727 0 0 0 3.376 2.078c1.418 0 2.324-.709 2.324-1.688 0-1.173-.931-1.589-2.491-2.272l-.856-.367c-2.469-1.052-4.11-2.37-4.11-5.156 0-2.567 1.956-4.52 5.012-4.52 2.178 0 3.744.76 4.867 2.746l-2.665 1.711c-.586-1.052-1.216-1.465-2.202-1.465-.997 0-1.629.632-1.629 1.465 0 1.025.632 1.441 2.09 2.078l.856.367c2.908 1.247 4.549 2.518 4.549 5.376 0 3.081-2.42 4.769-5.671 4.769-3.18 0-5.231-1.515-6.233-3.5l2.784-1.589zM8.465 19.778c.524.932 1.002 1.72 2.153 1.72 1.099 0 1.792-.43 1.792-2.1V11.13h3.424v8.302c0 3.46-2.026 5.038-4.982 5.038-2.669 0-4.214-1.382-5.006-3.043l2.619-1.649z"/>
  </symbol>

  <!-- Bootstrap Icon -->
  <symbol id="bootstrap" viewBox="0 0 32 32">
    <path fill="#563D7C" d="M27.429 3.429H4.571A1.143 1.143 0 0 0 3.43 4.57v22.858c0 .631.512 1.143 1.143 1.143h22.857a1.143 1.143 0 0 0 1.143-1.143V4.571a1.143 1.143 0 0 0-1.143-1.143z"/>
    <path fill="#FFF" d="M17.214 14.857c.857-.286 1.929-1.071 1.929-2.5 0-2.214-1.714-3.5-4.357-3.5H9.857v12.286h5.214c2.643 0 4.643-1.357 4.643-3.714 0-1.786-1.071-2.929-2.5-3.071zm-5.357-4h3.214c1.071 0 1.857.571 1.857 1.643 0 1-1.071 1.714-2.071 1.714h-3v-3.357zm3.571 9.143h-3.571v-3.643h3.643c1.286 0 2.214.714 2.214 1.857 0 1.071-.929 1.786-2.286 1.786z"/>
  </symbol>

  <!-- Java Icon -->
  <symbol id="java" viewBox="0 0 32 32">
    <path fill="#EA2D2E" d="M11.622 24.74s-1.23.748.855.962c2.51.32 3.847.267 6.625-.267a10.02 10.02 0 0 0 1.763.855c-6.25 2.672-14.16-.16-9.244-1.55zm-.8-3.473s-1.336 1.015.748 1.23c2.725.267 4.862.32 8.55-.427a3.26 3.26 0 0 0 1.282.801c-7.534 2.244-15.976.214-10.58-1.604z"/>
    <path fill="#0074BD" d="M17.762 15.39c1.55 1.763-.427 3.366-.427 3.366s3.847-2.03 2.137-4.542c-1.55-2.297-2.832-3.473 3.793-7.427 0 0-10.42 2.618-5.503 8.603z"/>
    <path fill="#EA2D2E" d="M26.46 27.145s.908.748-1.015 1.336c-3.58 1.07-15.016 1.39-18.22 0-1.122-.48 1.015-1.175 1.7-1.282.695-.16 1.07-.16 1.07-.16-1.23-.855-8.175 1.763-3.526 2.51 12.77 2.084 23.296-.908 19.983-2.404zm-16.536-12.03s-5.824 1.39-2.084 1.87c1.603.214 4.755.16 7.694-.053 2.404-.214 4.81-.64 4.81-.64s-.855.374-1.443.748c-5.93 1.55-17.312.855-14.052-.748 2.778-1.336 5.076-1.175 5.076-1.175zm13.065 7.534c5.984-3.1 3.206-6.09 1.282-5.717-.48.107-.695.214-.695.214s.16-.32.534-.427c3.794-1.336 6.786 4.007-1.23 6.09 0 0 .053-.053.107-.16z"/>
    <path fill="#0074BD" d="M18.938 1.73s3.313 3.366-3.152 8.55c-5.183 4.168-1.175 6.52 0 9.244-3.046-2.725-5.236-5.13-3.74-7.373 2.19-3.366 8.336-5.13 6.892-10.42z"/>
    <path fill="#EA2D2E" d="M12.305 31.536c5.717.374 14.587-.214 14.8-2.832 0 0-.427 1.07-4.755 1.87-4.916.908-11.007.8-14.587.214 0 0 .748.64 4.542.748z"/>
  </symbol>

  <!-- Spring Boot Icon -->
  <symbol id="spring" viewBox="0 0 32 32">
    <path fill="#6DB33F" d="M28.186 8.945c-.23-.48-.48-.908-.748-1.336l-.053-.053c-.267-.427-.534-.855-.855-1.23a16.004 16.004 0 0 0-22.615 0c-.32.374-.588.8-.855 1.23l-.053.053c-.267.427-.534.855-.748 1.336a16.004 16.004 0 0 0 0 14.11c.214.48.48.908.748 1.336l.053.053c.267.427.534.855.855 1.23a16.004 16.004 0 0 0 22.615 0c.32-.374.588-.8.855-1.23l.053-.053c.267-.427.534-.855.748-1.336a16.004 16.004 0 0 0 0-14.11zm-1.87 13.31c-.107.214-.214.427-.374.64a14.005 14.005 0 0 1-1.55 2.03 14.005 14.005 0 0 1-2.03 1.55c-.214.16-.427.267-.64.374-2.137 1.23-4.596 1.87-7.107 1.87a13.995 13.995 0 0 1-7.107-1.87 6.67 6.67 0 0 1-.64-.374 14.005 14.005 0 0 1-2.03-1.55 14.005 14.005 0 0 1-1.55-2.03c-.16-.214-.267-.427-.374-.64a13.995 13.995 0 0 1 0-13.31c.107-.214.214-.427.374-.64a14.005 14.005 0 0 1 1.55-2.03 14.005 14.005 0 0 1 2.03-1.55c.214-.16.427-.267.64-.374a13.995 13.995 0 0 1 14.214 0c.214.107.427.214.64.374a14.005 14.005 0 0 1 2.03 1.55 14.005 14.005 0 0 1 1.55 2.03c.16.214.267.427.374.64a13.995 13.995 0 0 1 0 13.31z"/>
    <path fill="#6DB33F" d="M25.224 11.31c-1.55-3.58-4.703-6.304-8.39-7.267-.427-.107-.855-.214-1.336-.267-.855-.107-1.763-.107-2.618 0-.48.053-.908.16-1.336.267-3.687.963-6.84 3.687-8.39 7.267-.267.64-.48 1.282-.64 1.976-.16.748-.267 1.55-.32 2.35-.053.855-.053 1.763 0 2.618.053.8.16 1.603.32 2.35.16.695.374 1.336.64 1.976 1.55 3.58 4.703 6.304 8.39 7.267.427.107.855.214 1.336.267.855.107 1.763.107 2.618 0 .48-.053.908-.16 1.336-.267 3.687-.963 6.84-3.687 8.39-7.267.267-.64.48-1.282.64-1.976.16-.748.267-1.55.32-2.35.053-.855.053-1.763 0-2.618-.053-.8-.16-1.603-.32-2.35-.16-.695-.374-1.336-.64-1.976zm-8.71 13.204a8.54 8.54 0 0 1-3.206-1.55 6.67 6.67 0 0 1-.32-.267 8.54 8.54 0 0 1-2.03-2.564 8.54 8.54 0 0 1-.748-1.87 8.54 8.54 0 0 1-.267-2.137c0-.748.107-1.496.267-2.137a8.54 8.54 0 0 1 .748-1.87 8.54 8.54 0 0 1 2.03-2.564c.107-.107.214-.214.32-.267a8.54 8.54 0 0 1 3.206-1.55 8.54 8.54 0 0 1 4.274 0 8.54 8.54 0 0 1 3.206 1.55c.107.053.214.16.32.267a8.54 8.54 0 0 1 2.03 2.564 8.54 8.54 0 0 1 .748 1.87c.16.64.267 1.39.267 2.137 0 .748-.107 1.496-.267 2.137a8.54 8.54 0 0 1-.748 1.87 8.54 8.54 0 0 1-2.03 2.564c-.107.107-.214.214-.32.267a8.54 8.54 0 0 1-3.206 1.55 8.54 8.54 0 0 1-4.274 0z"/>
    <path fill="#FFF" d="M16.515 14.066a6.838 6.838 0 0 0-4.703 1.87 6.838 6.838 0 0 0-1.87 4.703c0 .855.16 1.71.48 2.51.16.427.374.855.64 1.23a6.838 6.838 0 0 0 5.452 2.725 6.838 6.838 0 0 0 4.703-1.87 6.838 6.838 0 0 0 1.87-4.703c0-1.763-.695-3.473-1.87-4.703a6.838 6.838 0 0 0-4.703-1.87v.107zm-3.1 8.015a5.504 5.504 0 0 1-.695-2.672c0-1.496.588-2.938 1.656-3.954a5.504 5.504 0 0 1 3.954-1.656c.748 0 1.496.16 2.19.48a5.504 5.504 0 0 1 1.763 1.175 5.504 5.504 0 0 1 1.656 3.954c0 .963-.267 1.87-.695 2.672a5.504 5.504 0 0 1-4.914 2.938 5.504 5.504 0 0 1-4.914-2.938z"/>
  </symbol>

</svg>
